<?xml version="1.0" encoding="iso-8859-1"?>
<!-- Generator: Adobe Illustrator 19.0.0, SVG Export Plug-In . SVG Version: 6.00 Build 0)  -->
<svg xmlns="http://www.w3.org/2000/svg" xmlns:xlink="http://www.w3.org/1999/xlink" version="1.1" id="Layer_1" x="0px" y="0px" viewBox="0 0 512 512" style="enable-background:new 0 0 512 512;" xml:space="preserve" width="512px" height="512px">
<g>
	<g>
		<g>
			<path d="M453.333,181.333h-42.667V32c0-17.707-14.293-32-32-32h-21.333c-17.707,0-32,14.293-32,32v149.333H186.667V32     c0-17.707-14.293-32-32-32h-21.333c-17.707,0-32,14.293-32,32v149.333H58.667C52.8,181.333,48,186.133,48,192v160.107     c0.107,58.773,47.68,106.453,106.56,106.56H176v42.667C176,507.2,180.8,512,186.667,512h138.667C331.2,512,336,507.2,336,501.333     v-42.667h21.547C416.32,458.56,463.893,410.987,464,352.213V192C464,186.133,459.2,181.333,453.333,181.333z M346.667,32     c0-5.867,4.8-10.667,10.667-10.667h21.333c5.867,0,10.667,4.8,10.667,10.667v149.333h-42.667V32z M122.667,32     c0-5.867,4.8-10.667,10.667-10.667h21.333c5.867,0,10.667,4.8,10.667,10.667v149.333h-42.667V32z M314.667,490.667H197.333v-32     h117.333V490.667z M442.667,352.213c0,46.933-38.08,85.013-85.12,85.12H154.56c-47.04-0.107-85.12-38.187-85.227-85.227v-149.44     h373.333V352.213z" fill="#FFFFFF"/>
			<path d="M203.093,316.8l35.52,8.32l-31.68,71.467c-1.387,2.987,0.107,6.293,3.52,7.893c1.28,0.64,2.667,0.853,4.053,0.853     c2.24,0,4.373-0.747,6.08-2.24l92.16-88.107c1.707-1.493,2.347-3.947,1.6-6.187c-0.96-2.347-2.987-3.947-5.44-4.373L272.853,296     l22.293-63.467c1.067-2.987-0.64-6.187-3.947-7.573c-3.307-1.493-7.147-0.853-9.92,1.6l-82.027,79.893     c-1.707,1.6-2.347,3.947-1.493,6.187C198.72,314.667,200.747,316.373,203.093,316.8z" fill="#FFFFFF"/>
		</g>
	</g>
</g>
<g>
</g>
<g>
</g>
<g>
</g>
<g>
</g>
<g>
</g>
<g>
</g>
<g>
</g>
<g>
</g>
<g>
</g>
<g>
</g>
<g>
</g>
<g>
</g>
<g>
</g>
<g>
</g>
<g>
</g>
</svg>
